<svg width="97" height="90" viewBox="0 0 97 90" fill="none" xmlns="http://www.w3.org/2000/svg">
<path d="M90.0714 41.5385V62.3077H6.92857V6.92308H48.5V0H6.92857C5.091 0 3.32869 0.729393 2.02933 2.02772C0.729972 3.32605 0 5.08696 0 6.92308V62.3077C0 64.1438 0.729972 65.9047 2.02933 67.203C3.32869 68.5014 5.091 69.2308 6.92857 69.2308H34.6429V83.0769H20.7857V90H76.2143V83.0769H62.3571V69.2308H90.0714C91.909 69.2308 93.6713 68.5014 94.9707 67.203C96.27 65.9047 97 64.1438 97 62.3077V41.5385H90.0714ZM55.4286 83.0769H41.5714V69.2308H55.4286V83.0769Z" fill="#5A4DC9"/>
</svg>
